{
    "asset": {
        "version": "2.0",
        "generator": "Open Asset Import Library (assimp v5.4.0)"
    },
    "extensionsUsed": [
        "KHR_materials_volume",
        "FB_ngon_encoding"
    ],
    "accessors": [
        {
            "bufferView": 0,
            "byteOffset": 0,
            "componentType": 5126,
            "count": 13421,
            "type": "VEC3",
            "max": [
                0.748278021812439,
                0.8060169816017151,
                0.2572830021381378
            ],
            "min": [
                -0.7308779954910278,
                -0.9984369874000549,
                -0.2567110061645508
            ]
        },
        {
            "bufferView": 1,
            "byteOffset": 0,
            "componentType": 5126,
            "count": 13421,
            "type": "VEC3",
            "max": [
                0.9999544620513916,
                0.9996024370193481,
                0.9999138116836548
            ],
            "min": [
                -0.9994974136352539,
                -0.9986628293991089,
                -0.9999714493751526
            ]
        },
        {
            "bufferView": 2,
            "byteOffset": 0,
            "componentType": 5126,
            "count": 13421,
            "type": "VEC2",
            "max": [
                1.0,
                1.0
            ],
            "min": [
                0.000008761882781982422,
                0.00008797645568847656
            ]
        },
        {
            "bufferView": 3,
            "byteOffset": 0,
            "componentType": 5125,
            "count": 29994,
            "type": "SCALAR",
            "max": [
                13420
            ],
            "min": [
                0
            ]
        }
    ],
    "buffers": [
        {
            "byteLength": 549448,
            "uri": "product_0.bin"
        }
    ],
    "bufferViews": [
        {
            "buffer": 0,
            "byteOffset": 0,
            "byteLength": 161052,
            "target": 34962
        },
        {
            "buffer": 0,
            "byteOffset": 161052,
            "byteLength": 161052,
            "target": 34962
        },
        {
            "buffer": 0,
            "byteOffset": 322104,
            "byteLength": 107368,
            "target": 34962
        },
        {
            "buffer": 0,
            "byteOffset": 429472,
            "byteLength": 119976,
            "target": 34963
        }
    ],
    "images": [
        {
            "uri": "textures/image_0.png"
        }
    ],
    "materials": [
        {
            "name": "Mat_1",
            "pbrMetallicRoughness": {
                "baseColorTexture": {
                    "index": 0
                },
                "metallicFactor": 0.0,
                "roughnessFactor": 0.800000011920929
            },
            "doubleSided": true
        }
    ],
    "meshes": [
        {
            "name": "meshes[0]",
            "primitives": [
                {
                    "mode": 4,
                    "material": 0,
                    "indices": 3,
                    "attributes": {
                        "POSITION": 0,
                        "NORMAL": 1,
                        "TEXCOORD_0": 2
                    }
                }
            ]
        }
    ],
    "nodes": [
        {
            "name": "product",
            "children": [
                1
            ]
        },
        {
            "name": "mesh_0",
            "mesh": 0
        }
    ],
    "samplers": [
        {
            "magFilter": 9729,
            "minFilter": 9987
        }
    ],
    "scenes": [
        {
            "nodes": [
                0
            ]
        }
    ],
    "textures": [
        {
            "source": 0,
            "sampler": 0
        }
    ],
    "scene": 0
}